<svg width="245" height="65" viewBox="0 0 245 65" fill="none" xmlns="http://www.w3.org/2000/svg">
<g filter="url(#filter0_d_320_10)">
<path d="M4.63636 1.45454H11.0909L24 23.1818H24.5455L37.4545 1.45454H43.9091L27.0909 28.8182V48H21.4545V28.8182L4.63636 1.45454Z" fill="#F40000"/>
<path d="M57.4943 48.4545C55.5246 48.4545 53.7964 47.9858 52.3097 47.0483C50.8324 46.1108 49.6771 44.7992 48.8438 43.1136C48.0199 41.428 47.608 39.4583 47.608 37.2045C47.608 34.9318 48.0199 32.9479 48.8438 31.2528C49.6771 29.5578 50.8324 28.2415 52.3097 27.304C53.7964 26.3665 55.5246 25.8977 57.4943 25.8977C59.464 25.8977 61.1875 26.3665 62.6648 27.304C64.1515 28.2415 65.3068 29.5578 66.1307 31.2528C66.964 32.9479 67.3807 34.9318 67.3807 37.2045C67.3807 39.4583 66.964 41.428 66.1307 43.1136C65.3068 44.7992 64.1515 46.1108 62.6648 47.0483C61.1875 47.9858 59.464 48.4545 57.4943 48.4545ZM57.4943 45.4432C58.9905 45.4432 60.2216 45.0597 61.1875 44.2926C62.1534 43.5256 62.8684 42.517 63.3324 41.267C63.7964 40.017 64.0284 38.6629 64.0284 37.2045C64.0284 35.7462 63.7964 34.3873 63.3324 33.1278C62.8684 31.8684 62.1534 30.8504 61.1875 30.0739C60.2216 29.2973 58.9905 28.9091 57.4943 28.9091C55.9981 28.9091 54.767 29.2973 53.8011 30.0739C52.8352 30.8504 52.1203 31.8684 51.6562 33.1278C51.1922 34.3873 50.9602 35.7462 50.9602 37.2045C50.9602 38.6629 51.1922 40.017 51.6562 41.267C52.1203 42.517 52.8352 43.5256 53.8011 44.2926C54.767 45.0597 55.9981 45.4432 57.4943 45.4432ZM86.2479 39.0795V26.1818H89.6001V48H86.2479V44.3068H86.0206C85.5092 45.4148 84.7138 46.357 83.6342 47.1335C82.5547 47.9006 81.1911 48.2841 79.5433 48.2841C78.1797 48.2841 76.9676 47.9858 75.907 47.3892C74.8464 46.7831 74.013 45.8741 73.407 44.6619C72.8009 43.4403 72.4979 41.9015 72.4979 40.0455V26.1818H75.8501V39.8182C75.8501 41.4091 76.2952 42.678 77.1854 43.625C78.085 44.572 79.2308 45.0455 80.6229 45.0455C81.4562 45.0455 82.3037 44.8324 83.1655 44.4062C84.0367 43.9801 84.7659 43.3267 85.353 42.446C85.9496 41.5653 86.2479 40.4432 86.2479 39.0795ZM99.0923 34.875V48H95.7401V26.1818H98.9787V29.5909H99.2628C99.7741 28.483 100.551 27.5928 101.592 26.9205C102.634 26.2386 103.979 25.8977 105.626 25.8977C107.104 25.8977 108.396 26.2008 109.504 26.8068C110.612 27.4034 111.474 28.3125 112.089 29.5341C112.705 30.7462 113.013 32.2803 113.013 34.1364V48H109.661V34.3636C109.661 32.6496 109.215 31.3144 108.325 30.358C107.435 29.392 106.214 28.9091 104.661 28.9091C103.59 28.9091 102.634 29.1411 101.791 29.6051C100.958 30.0691 100.3 30.7462 99.8168 31.6364C99.3338 32.5265 99.0923 33.6061 99.0923 34.875ZM127.945 56.6364C126.326 56.6364 124.934 56.428 123.769 56.0114C122.604 55.6042 121.634 55.0644 120.857 54.392C120.09 53.7292 119.479 53.0189 119.025 52.2614L121.695 50.3864C121.998 50.7841 122.382 51.2386 122.846 51.75C123.31 52.2708 123.944 52.7206 124.749 53.0994C125.564 53.4877 126.629 53.6818 127.945 53.6818C129.707 53.6818 131.16 53.2557 132.306 52.4034C133.452 51.5511 134.025 50.2159 134.025 48.3977V43.9659H133.741C133.495 44.3636 133.144 44.8561 132.69 45.4432C132.245 46.0208 131.601 46.5369 130.758 46.9915C129.924 47.4366 128.798 47.6591 127.377 47.6591C125.616 47.6591 124.034 47.2424 122.633 46.4091C121.241 45.5758 120.138 44.3636 119.323 42.7727C118.518 41.1818 118.116 39.25 118.116 36.9773C118.116 34.7424 118.509 32.7964 119.295 31.1392C120.081 29.4725 121.174 28.1847 122.576 27.2756C123.978 26.357 125.597 25.8977 127.434 25.8977C128.854 25.8977 129.981 26.1345 130.815 26.608C131.657 27.072 132.301 27.6023 132.746 28.1989C133.201 28.786 133.551 29.2689 133.798 29.6477H134.138V26.1818H137.377V48.625C137.377 50.5 136.951 52.0246 136.099 53.1989C135.256 54.3826 134.12 55.2491 132.69 55.7983C131.269 56.357 129.688 56.6364 127.945 56.6364ZM127.832 44.6477C129.176 44.6477 130.313 44.34 131.241 43.7244C132.169 43.1089 132.874 42.2235 133.357 41.0682C133.84 39.9129 134.082 38.5303 134.082 36.9205C134.082 35.3485 133.845 33.9612 133.371 32.7585C132.898 31.5559 132.197 30.6136 131.269 29.9318C130.341 29.25 129.195 28.9091 127.832 28.9091C126.411 28.9091 125.228 29.2689 124.281 29.9886C123.343 30.7083 122.638 31.6742 122.164 32.8864C121.7 34.0985 121.468 35.4432 121.468 36.9205C121.468 38.4356 121.705 39.7756 122.178 40.9403C122.661 42.0956 123.371 43.0047 124.309 43.6676C125.256 44.321 126.43 44.6477 127.832 44.6477ZM191.076 48V26.1818H194.428V48H191.076ZM192.781 22.5455C192.127 22.5455 191.564 22.3229 191.09 21.8778C190.626 21.4328 190.394 20.8977 190.394 20.2727C190.394 19.6477 190.626 19.1127 191.09 18.6676C191.564 18.2225 192.127 18 192.781 18C193.434 18 193.993 18.2225 194.457 18.6676C194.93 19.1127 195.167 19.6477 195.167 20.2727C195.167 20.8977 194.93 21.4328 194.457 21.8778C193.993 22.3229 193.434 22.5455 192.781 22.5455ZM209.375 56.6364C207.756 56.6364 206.364 56.428 205.199 56.0114C204.034 55.6042 203.063 55.0644 202.287 54.392C201.52 53.7292 200.909 53.0189 200.455 52.2614L203.125 50.3864C203.428 50.7841 203.812 51.2386 204.276 51.75C204.74 52.2708 205.374 52.7206 206.179 53.0994C206.993 53.4877 208.059 53.6818 209.375 53.6818C211.136 53.6818 212.59 53.2557 213.736 52.4034C214.882 51.5511 215.455 50.2159 215.455 48.3977V43.9659H215.17C214.924 44.3636 214.574 44.8561 214.119 45.4432C213.674 46.0208 213.03 46.5369 212.188 46.9915C211.354 47.4366 210.227 47.6591 208.807 47.6591C207.045 47.6591 205.464 47.2424 204.062 46.4091C202.67 45.5758 201.567 44.3636 200.753 42.7727C199.948 41.1818 199.545 39.25 199.545 36.9773C199.545 34.7424 199.938 32.7964 200.724 31.1392C201.51 29.4725 202.604 28.1847 204.006 27.2756C205.407 26.357 207.027 25.8977 208.864 25.8977C210.284 25.8977 211.411 26.1345 212.244 26.608C213.087 27.072 213.731 27.6023 214.176 28.1989C214.631 28.786 214.981 29.2689 215.227 29.6477H215.568V26.1818H218.807V48.625C218.807 50.5 218.381 52.0246 217.528 53.1989C216.686 54.3826 215.549 55.2491 214.119 55.7983C212.699 56.357 211.117 56.6364 209.375 56.6364ZM209.261 44.6477C210.606 44.6477 211.742 44.34 212.67 43.7244C213.598 43.1089 214.304 42.2235 214.787 41.0682C215.27 39.9129 215.511 38.5303 215.511 36.9205C215.511 35.3485 215.275 33.9612 214.801 32.7585C214.328 31.5559 213.627 30.6136 212.699 29.9318C211.771 29.25 210.625 28.9091 209.261 28.9091C207.841 28.9091 206.657 29.2689 205.71 29.9886C204.773 30.7083 204.067 31.6742 203.594 32.8864C203.13 34.0985 202.898 35.4432 202.898 36.9205C202.898 38.4356 203.134 39.7756 203.608 40.9403C204.091 42.0956 204.801 43.0047 205.739 43.6676C206.686 44.321 207.86 44.6477 209.261 44.6477ZM240.398 31.0682L237.386 31.9205C237.197 31.4186 236.918 30.9309 236.548 30.4574C236.188 29.9744 235.696 29.5767 235.071 29.2642C234.446 28.9517 233.646 28.7955 232.67 28.7955C231.335 28.7955 230.223 29.1032 229.332 29.7188C228.452 30.3248 228.011 31.0966 228.011 32.0341C228.011 32.8674 228.314 33.5256 228.92 34.0085C229.527 34.4915 230.473 34.8939 231.761 35.2159L235 36.0114C236.951 36.4848 238.404 37.2093 239.361 38.1847C240.317 39.1506 240.795 40.3958 240.795 41.9205C240.795 43.1705 240.436 44.2879 239.716 45.2727C239.006 46.2576 238.011 47.0341 236.733 47.6023C235.455 48.1705 233.968 48.4545 232.273 48.4545C230.047 48.4545 228.205 47.9716 226.747 47.0057C225.289 46.0398 224.366 44.6288 223.977 42.7727L227.159 41.9773C227.462 43.1515 228.035 44.0322 228.878 44.6193C229.73 45.2064 230.843 45.5 232.216 45.5C233.778 45.5 235.019 45.1686 235.938 44.5057C236.866 43.8333 237.33 43.0284 237.33 42.0909C237.33 41.3333 237.064 40.6989 236.534 40.1875C236.004 39.6667 235.189 39.2784 234.091 39.0227L230.455 38.1705C228.456 37.697 226.989 36.9631 226.051 35.9688C225.123 34.965 224.659 33.7102 224.659 32.2045C224.659 30.9735 225.005 29.8845 225.696 28.9375C226.397 27.9905 227.348 27.2472 228.551 26.7074C229.763 26.1676 231.136 25.8977 232.67 25.8977C234.83 25.8977 236.525 26.3712 237.756 27.3182C238.996 28.2652 239.877 29.5152 240.398 31.0682Z" fill="black"/>
<path d="M177.9 16C177.4 14.4697 176.741 13.0985 175.923 11.8864C175.12 10.6591 174.157 9.61363 173.036 8.75C171.93 7.88636 170.673 7.22727 169.263 6.77272C167.854 6.31818 166.309 6.09091 164.627 6.09091C161.87 6.09091 159.362 6.80303 157.104 8.22727C154.847 9.65151 153.051 11.75 151.718 14.5227C150.385 17.2955 149.718 20.697 149.718 24.7273C149.718 28.7576 150.392 32.1591 151.741 34.9318C153.089 37.7045 154.915 39.803 157.218 41.2273C159.521 42.6515 162.112 43.3636 164.991 43.3636C167.657 43.3636 170.006 42.7955 172.036 41.6591C174.082 40.5076 175.673 38.8864 176.809 36.7955C177.96 34.6894 178.536 32.2121 178.536 29.3636L180.263 29.7273H166.263V24.7273H183.991V29.7273C183.991 33.5606 183.173 36.8939 181.536 39.7273C179.915 42.5606 177.673 44.7576 174.809 46.3182C171.96 47.8636 168.688 48.6364 164.991 48.6364C160.87 48.6364 157.248 47.6667 154.127 45.7273C151.021 43.7879 148.597 41.0303 146.854 37.4545C145.127 33.8788 144.263 29.6364 144.263 24.7273C144.263 21.0455 144.756 17.7348 145.741 14.7955C146.741 11.8409 148.15 9.32576 149.968 7.25C151.786 5.17424 153.938 3.58333 156.423 2.47727C158.907 1.37121 161.642 0.81818 164.627 0.81818C167.082 0.81818 169.37 1.18939 171.491 1.93182C173.627 2.65909 175.529 3.69697 177.195 5.04545C178.877 6.37879 180.279 7.97727 181.4 9.84091C182.521 11.6894 183.294 13.7424 183.718 16H177.9Z" fill="#EB2C2C"/>
</g>
<defs>
<filter id="filter0_d_320_10" x="0.636353" y="0.818176" width="244.159" height="63.8182" filterUnits="userSpaceOnUse" color-interpolation-filters="sRGB">
<feFlood flood-opacity="0" result="BackgroundImageFix"/>
<feColorMatrix in="SourceAlpha" type="matrix" values="0 0 0 0 0 0 0 0 0 0 0 0 0 0 0 0 0 0 127 0" result="hardAlpha"/>
<feOffset dy="4"/>
<feGaussianBlur stdDeviation="2"/>
<feComposite in2="hardAlpha" operator="out"/>
<feColorMatrix type="matrix" values="0 0 0 0 0 0 0 0 0 0 0 0 0 0 0 0 0 0 0.25 0"/>
<feBlend mode="normal" in2="BackgroundImageFix" result="effect1_dropShadow_320_10"/>
<feBlend mode="normal" in="SourceGraphic" in2="effect1_dropShadow_320_10" result="shape"/>
</filter>
</defs>
</svg>
