<svg width="788" height="579" viewBox="0 0 788 579" fill="none" xmlns="http://www.w3.org/2000/svg">
<path d="M767.741 251.996C767.961 248.634 760.073 246.993 760.432 244.05C760.789 241.119 768.744 241.728 777.155 236.433C778.671 235.478 788.229 229.46 787.297 224.945C785.531 216.387 747.632 220.755 743.944 208.305C743.134 205.573 743.886 201.74 741.654 193.152C740.766 189.736 740.029 187.963 738.523 187.404C736.386 186.61 734.569 188.952 729.325 192.414C721.459 197.604 720.022 195.981 714.378 200.555C710.188 203.95 708.78 206.628 706.956 206.088C704.374 205.325 705.527 199.469 702.572 198.04C699.556 196.582 694.297 200.717 691.074 204.302C685.027 211.031 684.4 217.775 682.39 223.941C680.205 230.642 675.365 239.793 663.357 249.216L553.747 329.004C576.821 313.031 641.348 270.117 666.488 254.965C673.746 250.591 681.368 246.334 689.689 248.292C697.701 250.177 705.395 257.597 718.311 262.52C719.819 263.095 724.039 264.642 725.939 262.838C727.509 261.347 726.064 258.924 727.509 257.51C729.448 255.613 733.623 258.433 740.465 259.398C745.289 260.079 748.988 259.492 752.168 258.988C753.127 258.835 767.449 256.472 767.741 251.996Z" fill="#F2F2F2"/>
<path d="M582.539 206.675C580.952 205.597 577.871 208.995 576.53 207.97C575.194 206.949 577.789 203.22 577.616 197.564C577.585 196.545 577.389 190.117 574.904 189.272C570.194 187.67 561.403 207.531 554.229 205.749C552.654 205.358 550.99 203.883 546.131 202.501C544.198 201.951 543.115 201.801 542.406 202.379C541.4 203.198 542.025 204.766 542.211 208.339C542.489 213.697 541.278 213.934 541.894 218.024C542.352 221.06 543.26 222.524 542.468 223.263C541.349 224.31 538.808 222.054 537.253 223.092C535.667 224.152 536.179 227.926 537.01 230.543C538.567 235.452 541.696 237.706 544.143 240.471C546.801 243.477 549.896 248.493 551.056 257.105L558.591 333.924C557.409 317.99 554.964 273.938 554.781 257.227C554.729 252.403 554.838 247.434 558.2 243.915C561.437 240.527 567.299 238.891 573.442 233.972C574.159 233.398 576.136 231.773 575.799 230.32C575.52 229.119 573.914 229.13 573.637 228.012C573.265 226.513 575.854 225.278 578.302 222.198C580.028 220.027 580.807 218.042 581.477 216.336C581.679 215.821 584.651 208.11 582.539 206.675Z" fill="#F2F2F2"/>
<path d="M609.257 235.387L614.134 226.222L615.011 225.875C619.071 224.272 622.094 222.062 624.001 219.304C624.304 218.866 624.585 218.412 624.871 217.95C626.005 216.118 627.414 213.841 630.326 212.056C631.954 211.064 636.041 208.984 638.484 211.262C639.148 211.867 639.472 212.584 639.623 213.267C639.752 213.211 639.883 213.156 640.024 213.095C641.76 212.382 642.812 212.287 643.825 212.196C644.604 212.126 645.407 212.055 646.9 211.603C647.554 211.406 648.094 211.208 648.549 211.042C649.927 210.543 651.649 210.002 653.259 211.134C654.937 212.405 654.863 214.461 654.815 215.823C654.73 218.252 654.381 219.806 654.149 220.837C654.063 221.213 653.969 221.638 653.966 221.787C653.962 222.992 659.032 225.335 660.935 226.228C665.219 228.22 668.926 229.944 668.636 233.307C668.431 235.715 666.13 237.508 661.609 238.777C660.2 239.171 658.895 239.309 657.786 239.359C658.145 240.136 658.307 241.062 657.93 242.084C657.035 244.502 653.846 245.355 648.448 244.628C647.105 244.451 645.301 244.206 643.198 243.243C642.209 242.788 641.386 242.279 640.69 241.833C640.405 242.217 640.02 242.581 639.478 242.856C637.887 243.668 635.997 243.28 633.887 241.617C631.542 239.824 629.856 237.987 628.367 236.37C627.066 234.959 625.942 233.748 624.85 233.103C622.808 231.934 620.254 232.461 617.127 233.272L609.257 235.387Z" fill="#F2F2F2"/>
<path d="M648.391 187.738L638.289 185.346L637.731 184.585C635.15 181.064 632.245 178.701 629.094 177.556C628.593 177.374 628.083 177.217 627.564 177.058C625.504 176.425 622.944 175.64 620.479 173.275C619.106 171.953 616.058 168.527 617.641 165.586C618.058 164.791 618.669 164.295 619.292 163.976C619.205 163.865 619.118 163.752 619.024 163.631C617.894 162.134 617.535 161.14 617.19 160.183C616.925 159.447 616.652 158.688 615.837 157.359C615.48 156.776 615.151 156.304 614.876 155.906C614.043 154.7 613.083 153.171 613.77 151.327C614.573 149.382 616.581 148.932 617.911 148.633C620.282 148.099 621.874 148.042 622.93 148.005C623.315 147.992 623.75 147.976 623.895 147.941C625.061 147.639 626.042 142.14 626.423 140.073C627.263 135.424 627.991 131.401 631.318 130.828C633.698 130.417 636.017 132.187 638.391 136.239C639.129 137.501 639.594 138.728 639.923 139.788C640.584 139.245 641.439 138.852 642.523 138.958C645.089 139.21 646.723 142.079 647.389 147.485C647.558 148.829 647.779 150.636 647.38 152.914C647.192 153.987 646.908 154.912 646.653 155.699C647.097 155.876 647.547 156.157 647.95 156.611C649.139 157.944 649.243 159.87 648.17 162.333C647.03 165.057 645.681 167.153 644.494 169.003C643.46 170.62 642.574 172.014 642.227 173.234C641.613 175.507 642.771 177.842 644.349 180.662L648.391 187.738Z" fill="#F2F2F2"/>
<path d="M661.142 159.633L666.018 150.468L666.896 150.121C670.955 148.518 673.978 146.308 675.885 143.55C676.188 143.112 676.469 142.658 676.755 142.196C677.889 140.364 679.298 138.087 682.211 136.302C683.839 135.31 687.926 133.23 690.369 135.507C691.032 136.113 691.356 136.83 691.507 137.513C691.637 137.456 691.768 137.401 691.909 137.341C693.644 136.627 694.696 136.533 695.709 136.442C696.488 136.372 697.292 136.3 698.784 135.849C699.439 135.651 699.979 135.454 700.433 135.288C701.811 134.788 703.534 134.248 705.143 135.38C706.821 136.65 706.747 138.707 706.699 140.068C706.614 142.498 706.265 144.052 706.033 145.083C705.948 145.459 705.853 145.883 705.851 146.032C705.847 147.237 710.917 149.58 712.82 150.473C717.104 152.466 720.811 154.189 720.521 157.553C720.315 159.96 718.015 161.754 713.493 163.022C712.085 163.417 710.78 163.555 709.671 163.605C710.029 164.382 710.192 165.308 709.815 166.33C708.92 168.748 705.73 169.6 700.332 168.874C698.989 168.697 697.186 168.452 695.083 167.488C694.093 167.034 693.271 166.525 692.574 166.078C692.29 166.463 691.904 166.827 691.363 167.102C689.771 167.914 687.882 167.525 685.772 165.863C683.426 164.069 681.741 162.233 680.252 160.615C678.951 159.205 677.827 157.994 676.735 157.349C674.692 156.179 672.139 156.707 669.012 157.518L661.142 159.633Z" fill="#F2F2F2"/>
<path d="M556.691 330.817L555.673 328.477L553.43 327.291C553.53 327.076 553.721 326.554 554.026 325.743C555.702 321.299 560.796 307.774 570.922 287.913C577.99 274.049 586.02 260.318 594.793 247.096C603.579 233.853 610.998 224.352 616.959 216.715C621.456 210.956 625.836 205.539 630.107 200.265C641.511 186.17 652.282 172.855 662.125 156.689C664.324 153.082 668.899 145.57 669.946 134.96C670.553 128.807 669.89 122.52 667.97 116.278L672.85 114.778C674.965 121.673 675.695 128.633 675.022 135.466C673.86 147.229 668.876 155.414 666.482 159.347C656.464 175.798 645.588 189.24 634.073 203.47C629.82 208.727 625.457 214.119 620.979 219.855C615.073 227.421 607.719 236.839 599.046 249.912C590.377 262.976 582.446 276.539 575.465 290.227C565.468 309.839 560.451 323.164 558.802 327.541C557.92 329.878 557.736 330.367 556.691 330.817Z" fill="#F2F2F2"/>
<path d="M655.672 117.678C655.499 117.56 655.327 117.437 655.159 117.303C651.708 114.655 649.858 110.237 649.659 104.171C649.571 101.321 650.343 98.6683 651.884 93.3776C652.12 92.5612 653.365 88.4509 655.899 83.3578C657.554 80.0292 658.477 78.7959 659.848 78.0862C661.371 77.2942 663.049 77.1633 664.668 77.4088C664.891 76.9694 665.218 76.5838 665.683 76.2801C667.602 75.0164 669.351 76.5527 670.307 77.3702C670.784 77.7935 671.376 78.3259 672.104 78.7703C673.246 79.4741 674.066 79.552 675.303 79.6753C676.488 79.7923 677.961 79.9379 679.772 80.7012C683.351 82.1927 685.368 84.8777 686.033 85.7621C689.546 90.3961 689.366 95.4717 689.157 101.348C689.112 102.525 688.841 106.734 687.205 111.64C686.025 115.179 685.005 116.412 684.08 117.216C682.186 118.871 680.175 119.184 675.33 119.598C670.266 120.036 667.726 120.253 665.774 120.105C661.235 119.756 658.384 119.536 655.672 117.678Z" fill="#F2F2F2"/>
<g filter="url(#filter0_d_340_133)">
<path d="M635.562 0H349.602C339.112 0 330.582 8.52997 330.582 19.02V313.98C330.582 324.47 339.112 333 349.602 333H635.562C646.052 333 654.582 324.47 654.582 313.98V19.02C654.582 8.52997 646.052 0 635.562 0ZM652.582 313.98C652.582 323.38 644.962 331 635.562 331H349.602C340.202 331 332.582 323.38 332.582 313.98V19.02C332.582 9.6201 340.202 2 349.602 2H501.074C584.75 2 652.582 69.8324 652.582 153.508V313.98Z" fill="#3F3D56"/>
</g>
<path d="M324.53 221.685C314.507 224.394 307.781 231.761 309.506 238.14C311.231 244.518 320.753 247.491 330.779 244.779C334.799 243.751 338.514 241.775 341.614 239.017L383.935 227.002L377.874 207.262L336.796 221.202C332.727 220.381 328.521 220.547 324.53 221.685Z" fill="#FFB6B6"/>
<path d="M501.882 162.462C501.882 162.462 513.831 179.99 486.902 193.212C459.973 206.435 410.195 225.306 410.195 225.306L341.465 241.229L331.086 218.475L412.641 196.254L479.098 159.167L501.882 162.462Z" fill="#3F3D56"/>
<path d="M493.888 115.807C493.582 124.116 499.563 133.979 505.888 134.181C513.495 134.425 549.461 136.987 550.617 134.004C558.645 113.292 520.839 70.3296 512.317 69.0902C507.737 68.4241 502.254 74.9994 500.145 80.4274C497.191 88.034 501.551 91.6212 499.09 101.869C497.214 109.683 494.101 109.999 493.888 115.807Z" fill="#2F2E41"/>
<path d="M431.284 443.34L406.042 449.125L431.405 524.385L448.51 520.467L431.284 443.34Z" fill="#FFB6B6"/>
<path d="M422.264 500.915L432.027 502.347L433.532 507.576C433.532 507.576 433.857 500.924 444.64 496.365L447.442 501.046C447.442 501.046 453.215 504.76 455.08 513.966L459.222 538.867L450.746 541.116L444.525 524.757C444.525 524.757 441.103 521.628 435.659 542.792C435.659 542.792 433.454 549.905 413.455 549.081C410.706 548.968 408.288 547.134 407.554 544.482C407.149 543.019 407.328 541.506 409.016 540.493C413.313 537.912 418.31 538.154 420.238 533.568C422.166 528.982 422.264 500.915 422.264 500.915Z" fill="#2F2E41"/>
<path d="M486.123 477.557L463.582 477L466.738 556.249L484.283 556.562L486.123 477.557Z" fill="#FFB6B6"/>
<path d="M463.513 531.269L472.644 535.008L472.847 540.446C472.847 540.446 474.763 534.068 486.326 532.238L487.92 537.456C487.92 537.456 492.629 542.45 492.224 551.834L490.252 577L481.483 577.143L479.383 559.768C479.383 559.768 476.814 555.907 466.437 575.139C466.437 575.139 462.585 581.512 443.372 575.9C440.731 575.128 438.825 572.766 438.751 570.016C438.71 568.499 439.248 567.073 441.13 566.496C445.922 565.025 450.714 566.462 453.689 562.475C456.663 558.487 463.513 531.269 463.513 531.269Z" fill="#2F2E41"/>
<path d="M532.637 390.997L413.423 381.772L446.971 244.241L527.237 232.676L532.637 390.997Z" fill="#2F2E41"/>
<path d="M516.196 138.193L541.314 124.811L561.598 148.761L520.838 279.4L446.279 246.386L502.909 149.571L516.196 138.193Z" fill="#2618FF"/>
<path d="M519.379 255.812C519.379 255.812 527.378 297.056 502.609 318.492L495.028 342.597L486.841 387.088L487.582 502L457.582 499L445.582 389.004L445.439 334.259L401.15 372.187L447.502 463.225L409.733 479.764L363.604 370.055C360.399 363.372 361.254 355.45 365.811 349.605L446.279 246.386L519.379 255.812Z" fill="#2F2E41"/>
<path d="M550.477 135.631L501.229 181.576C489.574 276.156 495.936 363.003 529.472 438.187L612.229 399.831C543.989 379.134 550.681 265.487 563.922 143.718L550.477 135.631Z" fill="#3F3D56"/>
<path d="M508.006 149.722L515.582 138L473.68 162.635L440.546 254.456L501.668 178.18L508.006 149.722Z" fill="#3F3D56"/>
<path d="M612.822 322.436C615.71 332.409 623.196 339.002 629.542 337.163C635.889 335.324 638.691 325.75 635.8 315.775C634.701 311.774 632.659 308.095 629.845 305.045L617.075 262.945L597.447 269.359L612.12 310.181C611.371 314.263 611.612 318.466 612.822 322.436Z" fill="#FFB6B6"/>
<path d="M548.565 144.699C548.565 144.699 565.742 132.251 579.733 158.789C593.724 185.327 614.018 234.542 614.018 234.542L631.91 302.787L609.463 313.815L584.908 232.932L545.926 167.569L548.565 144.699Z" fill="#3F3D56"/>
<path d="M528.139 123.734C543.545 123.734 556.035 111.245 556.035 95.8383C556.035 80.4319 543.545 67.9426 528.139 67.9426C512.732 67.9426 500.243 80.4319 500.243 95.8383C500.243 111.245 512.732 123.734 528.139 123.734Z" fill="#FFB6B6"/>
<path d="M528.231 84.955C526.661 84.8001 525.853 86.4605 519.857 88.777C517.732 89.5977 516.644 90.0097 515.397 90.0899C511.603 90.3336 508.655 88.2385 506.685 86.8384C503.483 84.5625 501.419 83.0964 501.017 80.7526C500.491 77.694 503.953 74.2772 510.9 67.5687C514.302 64.2833 516.375 62.2988 519.703 59.9369C525.287 55.9752 528.078 53.9944 531.992 53.6057C537.175 53.091 541.115 55.5643 546.801 59.1333C548.337 60.0975 550.552 60.5612 552.9 60.7379C560.586 61.3163 567.175 66.4392 569.266 73.8582C569.425 74.425 569.559 74.938 569.66 75.3774C573.786 93.3912 572.635 112.127 566.988 129.724C566.836 130.197 566.709 130.638 566.611 131.04C563.988 141.757 527.955 145.934 523.74 136.875C521.086 131.17 533.489 125.462 535.341 108.452C536.631 96.6098 532.148 85.3412 528.231 84.955Z" fill="#2F2E41"/>
<path d="M419.582 91.2531H117.33V92.8024H419.582V91.2531Z" fill="#E6E6E6"/>
<path d="M376.912 68.6004H160C156.583 68.6004 153.803 65.8201 153.803 62.4029C153.803 58.9857 156.583 56.2054 160 56.2054H376.912C380.329 56.2054 383.109 58.9857 383.109 62.4029C383.109 65.8201 380.329 68.6004 376.912 68.6004Z" fill="#121212"/>
<path d="M118 103.583C125.18 103.583 131 97.7627 131 90.583C131 83.4033 125.18 77.583 118 77.583C110.82 77.583 105 83.4033 105 90.583C105 97.7627 110.82 103.583 118 103.583Z" fill="#121212"/>
<path d="M158 75.583C165.18 75.583 171 69.7627 171 62.583C171 55.4033 165.18 49.583 158 49.583C150.82 49.583 145 55.4033 145 62.583C145 69.7627 150.82 75.583 158 75.583Z" fill="#121212"/>
<path d="M317.582 236.253H15.3301V237.802H317.582V236.253Z" fill="#3F3D56"/>
<path d="M274.912 213.6H58.0004C54.5832 213.6 51.803 210.82 51.803 207.403C51.803 203.986 54.5832 201.205 58.0004 201.205H274.912C278.329 201.205 281.109 203.986 281.109 207.403C281.109 210.82 278.329 213.6 274.912 213.6Z" fill="#1203FF"/>
<path d="M13 248.583C20.1797 248.583 26 242.763 26 235.583C26 228.403 20.1797 222.583 13 222.583C5.8203 222.583 0 228.403 0 235.583C0 242.763 5.8203 248.583 13 248.583Z" fill="#1203FF"/>
<path d="M53 220.583C60.1797 220.583 66 214.763 66 207.583C66 200.403 60.1797 194.583 53 194.583C45.8203 194.583 40 200.403 40 207.583C40 214.763 45.8203 220.583 53 220.583Z" fill="#1203FF"/>
<path d="M353.582 396.253H51.3301V397.802H353.582V396.253Z" fill="#E6E6E6"/>
<path d="M310.912 373.6H94.0004C90.5832 373.6 87.803 370.82 87.803 367.403C87.803 363.986 90.5832 361.205 94.0004 361.205H310.912C314.329 361.205 317.109 363.986 317.109 367.403C317.109 370.82 314.329 373.6 310.912 373.6Z" fill="#121212"/>
<path d="M88 379.583C95.1797 379.583 101 373.763 101 366.583C101 359.403 95.1797 353.583 88 353.583C80.8203 353.583 75 359.403 75 366.583C75 373.763 80.8203 379.583 88 379.583Z" fill="#121212"/>
<path d="M49 409.583C56.1797 409.583 62 403.763 62 396.583C62 389.403 56.1797 383.583 49 383.583C41.8203 383.583 36 389.403 36 396.583C36 403.763 41.8203 409.583 49 409.583Z" fill="#121212"/>
<defs>
<filter id="filter0_d_340_133" x="326.582" y="0" width="332" height="341" filterUnits="userSpaceOnUse" color-interpolation-filters="sRGB">
<feFlood flood-opacity="0" result="BackgroundImageFix"/>
<feColorMatrix in="SourceAlpha" type="matrix" values="0 0 0 0 0 0 0 0 0 0 0 0 0 0 0 0 0 0 127 0" result="hardAlpha"/>
<feOffset dy="4"/>
<feGaussianBlur stdDeviation="2"/>
<feComposite in2="hardAlpha" operator="out"/>
<feColorMatrix type="matrix" values="0 0 0 0 0 0 0 0 0 0 0 0 0 0 0 0 0 0 0.25 0"/>
<feBlend mode="normal" in2="BackgroundImageFix" result="effect1_dropShadow_340_133"/>
<feBlend mode="normal" in="SourceGraphic" in2="effect1_dropShadow_340_133" result="shape"/>
</filter>
</defs>
</svg>
